<svg width="1920" height="600" viewBox="0 0 1920 600" fill="none" xmlns="http://www.w3.org/2000/svg">
<rect x="-3" width="1926" height="600" fill="url(#paint0_linear)"/>
<mask id="mask0" mask-type="alpha" maskUnits="userSpaceOnUse" x="-3" y="0" width="1926" height="600">
<rect x="-3" width="1926" height="600" fill="url(#paint1_linear)"/>
</mask>
<g mask="url(#mask0)">
<g style="mix-blend-mode:overlay" opacity="0.2">
<rect y="494" width="191" height="231" fill="url(#paint2_linear)"/>
</g>
<g style="mix-blend-mode:overlay" opacity="0.1">
<line x1="191.5" y1="2.18557e-08" x2="191.5" y2="600" stroke="white"/>
</g>
<g style="mix-blend-mode:overlay" opacity="0.1">
<line x1="383.5" y1="2.18557e-08" x2="383.5" y2="600" stroke="white"/>
</g>
<g style="mix-blend-mode:overlay" opacity="0.1">
<line x1="575.5" y1="2.18557e-08" x2="575.5" y2="600" stroke="white"/>
</g>
<g style="mix-blend-mode:overlay" opacity="0.1">
<line x1="767.5" y1="2.18557e-08" x2="767.5" y2="600" stroke="white"/>
</g>
<g style="mix-blend-mode:overlay" opacity="0.1">
<line x1="959.5" y1="2.18557e-08" x2="959.5" y2="600" stroke="white"/>
</g>
<g opacity="0.5">
<rect x="955" y="97" width="8" height="8.51752" rx="4" fill="white"/>
</g>
<g opacity="0.5">
<rect x="763" y="517" width="8" height="8.51752" rx="4" fill="white"/>
</g>
<g opacity="0.5">
<rect x="1148" y="319" width="8" height="8.51752" rx="4" fill="white"/>
</g>
<g opacity="0.5">
<rect x="379" y="468" width="8" height="8.51752" rx="4" fill="white"/>
</g>
<g opacity="0.5">
<rect x="1723" y="439" width="8" height="8.51752" rx="4" fill="white"/>
</g>
<g style="mix-blend-mode:overlay" opacity="0.1">
<line x1="1151.5" y1="2.18557e-08" x2="1151.5" y2="600" stroke="white"/>
</g>
<g style="mix-blend-mode:overlay" opacity="0.1">
<line x1="1343.5" y1="2.18557e-08" x2="1343.5" y2="600" stroke="white"/>
</g>
<g style="mix-blend-mode:overlay" opacity="0.1">
<line x1="1535.5" y1="2.18557e-08" x2="1535.5" y2="600" stroke="white"/>
</g>
<g style="mix-blend-mode:overlay" opacity="0.1">
<line x1="1727.5" y1="3" x2="1727.5" y2="603" stroke="white"/>
</g>
<g style="mix-blend-mode:overlay" opacity="0.2">
<rect x="192" y="415" width="191" height="310" fill="url(#paint3_linear)"/>
</g>
<g style="mix-blend-mode:overlay" opacity="0.2">
<rect x="384" y="364" width="191" height="361" fill="url(#paint4_linear)"/>
</g>
<g style="mix-blend-mode:overlay" opacity="0.2">
<rect x="576" y="271" width="191" height="454" fill="url(#paint5_linear)"/>
</g>
<g style="mix-blend-mode:overlay" opacity="0.2">
<rect x="768" y="163" width="191" height="562" fill="url(#paint6_linear)"/>
</g>
<g style="mix-blend-mode:overlay" opacity="0.2">
<rect x="960" y="252" width="191" height="473" fill="url(#paint7_linear)"/>
</g>
<g style="mix-blend-mode:overlay" opacity="0.2">
<rect x="1152" y="96" width="191" height="629" fill="url(#paint8_linear)"/>
</g>
<g style="mix-blend-mode:overlay" opacity="0.2">
<rect x="1344" y="201" width="191" height="524" fill="url(#paint9_linear)"/>
</g>
<g style="mix-blend-mode:overlay" opacity="0.2">
<rect x="1536" y="309" width="191" height="416" fill="url(#paint10_linear)"/>
</g>
<g style="mix-blend-mode:overlay" opacity="0.2">
<rect x="1728" y="400" width="191" height="325" fill="url(#paint11_linear)"/>
</g>
</g>
<defs>
<linearGradient id="paint0_linear" x1="-45.5001" y1="-17.9998" x2="1923" y2="743" gradientUnits="userSpaceOnUse">
<stop stop-color="#00C4CC"/>
<stop offset="1" stop-color="#8D39FA"/>
</linearGradient>
<linearGradient id="paint1_linear" x1="-45.5001" y1="-17.9998" x2="1923" y2="743" gradientUnits="userSpaceOnUse">
<stop stop-color="#00C4CC"/>
<stop offset="1" stop-color="#8D39FA"/>
</linearGradient>
<linearGradient id="paint2_linear" x1="95.5" y1="494" x2="95.5" y2="725" gradientUnits="userSpaceOnUse">
<stop stop-color="#0E1318"/>
<stop offset="1" stop-color="#C4C4C4" stop-opacity="0"/>
</linearGradient>
<linearGradient id="paint3_linear" x1="287.5" y1="415" x2="287.5" y2="725" gradientUnits="userSpaceOnUse">
<stop stop-color="#0E1318"/>
<stop offset="1" stop-color="#C4C4C4" stop-opacity="0"/>
</linearGradient>
<linearGradient id="paint4_linear" x1="479.5" y1="364" x2="479.5" y2="725" gradientUnits="userSpaceOnUse">
<stop stop-color="#0E1318"/>
<stop offset="1" stop-color="#C4C4C4" stop-opacity="0"/>
</linearGradient>
<linearGradient id="paint5_linear" x1="671.5" y1="271" x2="671.5" y2="725" gradientUnits="userSpaceOnUse">
<stop stop-color="#0E1318"/>
<stop offset="1" stop-color="#C4C4C4" stop-opacity="0"/>
</linearGradient>
<linearGradient id="paint6_linear" x1="863.5" y1="163" x2="863.5" y2="725" gradientUnits="userSpaceOnUse">
<stop stop-color="#0E1318"/>
<stop offset="1" stop-color="#C4C4C4" stop-opacity="0"/>
</linearGradient>
<linearGradient id="paint7_linear" x1="1055.5" y1="252" x2="1055.5" y2="725" gradientUnits="userSpaceOnUse">
<stop stop-color="#0E1318"/>
<stop offset="1" stop-color="#C4C4C4" stop-opacity="0"/>
</linearGradient>
<linearGradient id="paint8_linear" x1="1247.5" y1="96" x2="1247.5" y2="725" gradientUnits="userSpaceOnUse">
<stop stop-color="#0E1318"/>
<stop offset="1" stop-color="#C4C4C4" stop-opacity="0"/>
</linearGradient>
<linearGradient id="paint9_linear" x1="1439.5" y1="201" x2="1439.5" y2="725" gradientUnits="userSpaceOnUse">
<stop stop-color="#0E1318"/>
<stop offset="1" stop-color="#C4C4C4" stop-opacity="0"/>
</linearGradient>
<linearGradient id="paint10_linear" x1="1631.5" y1="309" x2="1631.5" y2="725" gradientUnits="userSpaceOnUse">
<stop stop-color="#0E1318"/>
<stop offset="1" stop-color="#C4C4C4" stop-opacity="0"/>
</linearGradient>
<linearGradient id="paint11_linear" x1="1823.5" y1="400" x2="1823.5" y2="725" gradientUnits="userSpaceOnUse">
<stop stop-color="#0E1318"/>
<stop offset="1" stop-color="#C4C4C4" stop-opacity="0"/>
</linearGradient>
</defs>
</svg>
